<svg aria-hidden="true" xmlns="http://www.w3.org/2000/svg" xmlns:xlink="http://www.w3.org/1999/xlink"><symbol viewBox="0 0 8 5" id="arrow-header" xmlns="http://www.w3.org/2000/svg">
<path d="M0.526967 0.194787C0.786681 -0.0647285 1.20769 -0.0649578 1.46769 0.194274L4.05941 2.77838L6.65114 0.194274C6.91114 -0.0649581 7.33215 -0.0647285 7.59186 0.194787C7.85178 0.454502 7.85178 0.875584 7.59186 1.1353L4.72659 3.99838C4.35812 4.36657 3.76071 4.36657 3.39224 3.99838L0.526967 1.1353C0.267052 0.875583 0.267053 0.454502 0.526967 0.194787Z"/>
</symbol><symbol viewBox="0 0 20 20" id="close-header" xmlns="http://www.w3.org/2000/svg">
<path d="M19.3125 2.5625L11.875 10L19.3125 17.4375L17.4375 19.3125L10 11.875L2.5625 19.3125L0.6875 17.4375L8.125 10L0.6875 2.5625L2.5625 0.6875L10 8.125L17.4375 0.6875L19.3125 2.5625Z"/>
</symbol><symbol viewBox="0 0 36 34" id="easy01" xmlns="http://www.w3.org/2000/svg">
<path d="M27.2812 5.35938L28.375 7.625L30.6406 8.64062L28.375 9.73438L27.2812 12L26.2656 9.73438L24 8.64062L26.2656 7.625L27.2812 5.35938ZM17.3594 7.23438V3.64062H20.6406C21.5781 3.64062 22.4375 3.90104 23.2188 4.42188L25.6406 2C24.9635 1.47917 24.1823 1.08854 23.2969 0.828125C22.4635 0.515625 21.5781 0.359375 20.6406 0.359375C20.1719 0.359375 19.5469 0.359375 18.7656 0.359375C18.0365 0.359375 17.2292 0.359375 16.3438 0.359375C15.5104 0.359375 14.7292 0.359375 14 0.359375C13.2708 0.359375 12.6719 0.359375 12.2031 0.359375C11.7344 0.359375 11.5 0.359375 11.5 0.359375V3.64062H14V7.23438C12.5417 7.54688 11.2396 8.19792 10.0938 9.1875C9 10.1771 8.21875 11.401 7.75 12.8594H14.3906L24 16.4531V15.3594C24 14.0052 23.7135 12.7812 23.1406 11.6875C22.5677 10.5417 21.7604 9.57812 20.7188 8.79688C19.7292 8.01562 18.6094 7.49479 17.3594 7.23438ZM0.640625 33.6406H7.35938V15.3594H0.640625V33.6406ZM32.3594 25.3594H20.6406L17.2031 24.1094L17.75 22.5469L20.6406 23.6406H25.3281C25.901 23.6406 26.3698 23.4583 26.7344 23.0938C27.151 22.7292 27.3594 22.2604 27.3594 21.6875C27.3594 20.8021 26.9167 20.1771 26.0312 19.8125L13.9219 15.3594H10.6406V30.3594L22.3594 33.6406L35.6406 28.6406C35.6406 27.7552 35.3021 27 34.625 26.375C34 25.6979 33.2448 25.3594 32.3594 25.3594ZM32.3594 20.3594C33.2448 20.3594 34 20.0469 34.625 19.4219C35.3021 18.7448 35.6406 17.9375 35.6406 17C35.6406 16.5312 35.4583 15.9323 35.0938 15.2031C34.7812 14.474 34.4167 13.7448 34 13.0156C33.5833 12.2344 33.1927 11.6094 32.8281 11.1406C32.5156 10.6198 32.3594 10.3594 32.3594 10.3594C32.3594 10.3594 32.1771 10.6198 31.8125 11.1406C31.5 11.6094 31.1094 12.2344 30.6406 13.0156C30.224 13.7448 29.8333 14.474 29.4688 15.2031C29.1562 15.9323 29 16.5312 29 17C29 17.9375 29.3125 18.7448 29.9375 19.4219C30.6146 20.0469 31.4219 20.3594 32.3594 20.3594Z"/>
</symbol><symbol viewBox="0 0 34 34" id="easy02" xmlns="http://www.w3.org/2000/svg">
<path d="M7.54688 26.4531C10.2031 29.0573 13.3542 30.3594 17 30.3594C20.6458 30.3594 23.7708 29.0573 26.375 26.4531C29.0312 23.7969 30.3594 20.6458 30.3594 17C30.3594 13.3542 29.0312 10.2292 26.375 7.625C23.7708 4.96875 20.6458 3.64062 17 3.64062C13.3542 3.64062 10.2031 4.96875 7.54688 7.625C4.94271 10.2292 3.64062 13.3542 3.64062 17C3.64062 20.6458 4.94271 23.7969 7.54688 26.4531ZM5.20312 5.28125C8.48438 2 12.4167 0.359375 17 0.359375C21.5833 0.359375 25.4896 2 28.7188 5.28125C32 8.51042 33.6406 12.4167 33.6406 17C33.6406 21.5833 32 25.5156 28.7188 28.7969C25.4896 32.026 21.5833 33.6406 17 33.6406C12.4167 33.6406 8.48438 32.026 5.20312 28.7969C1.97396 25.5156 0.359375 21.5833 0.359375 17C0.359375 12.4167 1.97396 8.51042 5.20312 5.28125ZM20.75 7.85938C22.1042 8.43229 23.1979 9.13542 24.0312 9.96875C24.8646 10.8021 25.5677 11.8958 26.1406 13.25C26.7135 14.6042 27 15.8542 27 17C27 18.1458 26.7135 19.3958 26.1406 20.75C25.6198 22.1042 24.9427 23.1979 24.1094 24.0312C22.1823 26.0104 19.8385 27 17.0781 27C14.3177 27 11.9479 26.0104 9.96875 24.0312L17 17V7C18.1458 7 19.3958 7.28646 20.75 7.85938Z"/>
</symbol><symbol viewBox="0 0 34 34" id="easy03" xmlns="http://www.w3.org/2000/svg">
<path d="M13.6406 25.3594L28.6406 10.3594L26.2969 7.9375L13.6406 20.5938L7.70312 14.6562L5.35938 17L13.6406 25.3594ZM5.20312 5.28125C8.48438 2 12.4167 0.359375 17 0.359375C21.5833 0.359375 25.4896 2 28.7188 5.28125C32 8.51042 33.6406 12.4167 33.6406 17C33.6406 21.5833 32 25.5156 28.7188 28.7969C25.4896 32.026 21.5833 33.6406 17 33.6406C12.4167 33.6406 8.48438 32.026 5.20312 28.7969C1.97396 25.5156 0.359375 21.5833 0.359375 17C0.359375 12.4167 1.97396 8.51042 5.20312 5.28125Z"/>
</symbol><symbol viewBox="0 0 24 24" id="facebook" xmlns="http://www.w3.org/2000/svg">
<path d="M16.5 6H13.5C12.9477 6 12.5 6.44772 12.5 7V10H16.5C16.6137 9.99748 16.7216 10.0504 16.7892 10.1419C16.8568 10.2334 16.8758 10.352 16.84 10.46L16.1 12.66C16.0318 12.8619 15.8431 12.9984 15.63 13H12.5V20.5C12.5 20.7761 12.2761 21 12 21H9.5C9.22386 21 9 20.7761 9 20.5V13H7.5C7.22386 13 7 12.7761 7 12.5V10.5C7 10.2239 7.22386 10 7.5 10H9V7C9 4.79086 10.7909 3 13 3H16.5C16.7761 3 17 3.22386 17 3.5V5.5C17 5.77614 16.7761 6 16.5 6Z"/>
</symbol><symbol viewBox="0 0 24 24" id="insta" xmlns="http://www.w3.org/2000/svg">
<path fill-rule="evenodd" clip-rule="evenodd" d="M16 3H8C5.23858 3 3 5.23858 3 8V16C3 18.7614 5.23858 21 8 21H16C18.7614 21 21 18.7614 21 16V8C21 5.23858 18.7614 3 16 3ZM19.25 16C19.2445 17.7926 17.7926 19.2445 16 19.25H8C6.20735 19.2445 4.75549 17.7926 4.75 16V8C4.75549 6.20735 6.20735 4.75549 8 4.75H16C17.7926 4.75549 19.2445 6.20735 19.25 8V16ZM16.75 8.25C17.3023 8.25 17.75 7.80228 17.75 7.25C17.75 6.69772 17.3023 6.25 16.75 6.25C16.1977 6.25 15.75 6.69772 15.75 7.25C15.75 7.80228 16.1977 8.25 16.75 8.25ZM12 7.5C9.51472 7.5 7.5 9.51472 7.5 12C7.5 14.4853 9.51472 16.5 12 16.5C14.4853 16.5 16.5 14.4853 16.5 12C16.5027 10.8057 16.0294 9.65957 15.1849 8.81508C14.3404 7.97059 13.1943 7.49734 12 7.5ZM9.25 12C9.25 13.5188 10.4812 14.75 12 14.75C13.5188 14.75 14.75 13.5188 14.75 12C14.75 10.4812 13.5188 9.25 12 9.25C10.4812 9.25 9.25 10.4812 9.25 12Z"/>
</symbol><symbol viewBox="0 0 124 24" id="logo-01" xmlns="http://www.w3.org/2000/svg">
<path d="M13.1475 2.58368L9.82678 21.4163" stroke-width="1.56345" stroke-linecap="square"/>
<path d="M13.5117 6.43884L9.46353 17.5611" stroke-width="1.56345" stroke-linecap="square"/>
<path d="M12.998 9.38312L9.97638 14.6168" stroke-width="1.56345" stroke-linecap="square"/>
<path d="M17.9473 4.30066L5.02631 19.6993" stroke-width="1.56345" stroke-linecap="square"/>
<path d="M13.377 10.4142L9.59729 13.5857" stroke-width="1.56345" stroke-linecap="square"/>
<path d="M15.2666 10.6244L7.7076 13.3756" stroke-width="1.56345" stroke-linecap="square"/>
<path d="M21.6875 12H1.28696" stroke-width="1.56345" stroke-linecap="square"/>
<path d="M19.7891 13.4637L3.186 10.5362" stroke-width="1.56345" stroke-linecap="square"/>
<path d="M20.0693 15.1236L2.90509 8.87634" stroke-width="1.56345" stroke-linecap="square"/>
<path d="M14.3857 13.6733L8.58907 10.3266" stroke-width="1.56345" stroke-linecap="square"/>
<path d="M18.1162 17.5627L4.85736 6.43719" stroke-width="1.56345" stroke-linecap="square"/>
<path d="M14.4482 15.5287L8.52621 8.47113" stroke-width="1.56345" stroke-linecap="square"/>
<path d="M14.1973 19.4471L8.7762 4.55286" stroke-width="1.56345" stroke-linecap="square"/>
<path d="M11.8262 13.926L11.147 10.0739" stroke-width="1.56345" stroke-linecap="square"/>
<path d="M11.4873 16.182V7.81793" stroke-width="1.56345" stroke-linecap="square"/>
<path d="M10.0039 20.4073L12.9688 3.59271" stroke-width="1.56345" stroke-linecap="square"/>
<path d="M10.6094 13.5202L12.3648 10.4798" stroke-width="1.56345" stroke-linecap="square"/>
<path d="M8.8457 15.1485L14.1296 8.85144" stroke-width="1.56345" stroke-linecap="square"/>
<path d="M8.65039 14.3806L14.3247 9.61932" stroke-width="1.56345" stroke-linecap="square"/>
<path d="M2.50586 17.1852L20.4682 6.8147" stroke-width="1.56345" stroke-linecap="square"/>
<path d="M1.96191 13.6796L21.0125 10.3204" stroke-width="1.56345" stroke-linecap="square"/>
<path d="M4.84766 12H18.1266" stroke-width="1.56345" stroke-linecap="square"/>
<path d="M1.70508 6.3526L21.268 17.6473" stroke-width="1.56345" stroke-linecap="square"/>
<path d="M8.76367 9.7146L14.2109 14.2853" stroke-width="1.56345" stroke-linecap="square"/>
<path d="M10.1562 10.4139L12.8179 13.586" stroke-width="1.56345" stroke-linecap="square"/>
<path d="M7.18652 4.55115L15.7877 19.4488" stroke-width="1.56345" stroke-linecap="square"/>
<path d="M11.4873 1.92157V22.0784" stroke-width="1.56345" stroke-linecap="square"/>
<path d="M12.0078 10.5685L10.9658 13.4314" stroke-width="1.56345" stroke-linecap="square"/>
<path d="M21.2148 6.38361L1.75917 17.6163" stroke-width="1.56345" stroke-linecap="square"/>
<path d="M15.2129 12H7.76144" stroke-width="1.56345" stroke-linecap="square"/>
<path d="M32 17.0919H40.3851V14.8085H34.7694V3.99298H32V17.0919Z"/>
<path d="M46.0657 17.2837C49.0462 17.2837 50.9011 15.2434 50.9011 12.2182C50.9011 9.17368 49.0462 7.13977 46.0657 7.13977C43.0854 7.13977 41.2305 9.17368 41.2305 12.2182C41.2305 15.2434 43.0854 17.2837 46.0657 17.2837ZM46.0784 15.1731C44.7033 15.1731 43.9999 13.9131 43.9999 12.199C43.9999 10.4849 44.7033 9.21846 46.0784 9.21846C47.428 9.21846 48.1317 10.4849 48.1317 12.199C48.1317 13.9131 47.428 15.1731 46.0784 15.1731Z"/>
<path d="M56.558 20.9806C59.3659 20.9806 61.3614 19.7014 61.3614 17.1878V7.2677H58.656V8.91785H58.5537C58.189 8.11837 57.3895 7.13977 55.7457 7.13977C53.5904 7.13977 51.7676 8.81552 51.7676 12.1606C51.7676 15.4289 53.5392 16.9511 55.7523 16.9511C57.3192 16.9511 58.1955 16.1644 58.5537 15.3522H58.6688V17.1494C58.6688 18.499 57.8053 19.0234 56.622 19.0234C55.4196 19.0234 54.8119 18.499 54.588 17.9041L52.0683 18.2431C52.3945 19.7909 53.9101 20.9806 56.558 20.9806ZM56.6158 14.9044C55.279 14.9044 54.5498 13.8427 54.5498 12.1478C54.5498 10.4785 55.2662 9.30799 56.6158 9.30799C57.9396 9.30799 58.6815 10.4273 58.6815 12.1478C58.6815 13.8811 57.9268 14.9044 56.6158 14.9044Z"/>
<path d="M67.4289 17.2837C70.4095 17.2837 72.2644 15.2434 72.2644 12.2182C72.2644 9.17368 70.4095 7.13977 67.4289 7.13977C64.4484 7.13977 62.5938 9.17368 62.5938 12.2182C62.5938 15.2434 64.4484 17.2837 67.4289 17.2837ZM67.4417 15.1731C66.0666 15.1731 65.3632 13.9131 65.3632 12.199C65.3632 10.4849 66.0666 9.21846 67.4417 9.21846C68.7913 9.21846 69.495 10.4849 69.495 12.199C69.495 13.9131 68.7913 15.1731 67.4417 15.1731Z"/>
<path d="M73.4949 17.0918H76.2195V7.26768H73.4949V17.0918ZM74.8637 6.00128C75.676 6.00128 76.3411 5.38088 76.3411 4.61977C76.3411 3.86503 75.676 3.24463 74.8637 3.24463C74.0577 3.24463 73.3926 3.86503 73.3926 4.61977C73.3926 5.38088 74.0577 6.00128 74.8637 6.00128Z"/>
<path d="M77.8623 20.7759H80.587V15.5184H80.6703C81.0475 16.3371 81.8725 17.2517 83.4587 17.2517C85.6973 17.2517 87.4434 15.4801 87.4434 12.1926C87.4434 8.81552 85.6205 7.13977 83.4652 7.13977C81.8215 7.13977 81.0347 8.11837 80.6703 8.91785H80.5487V7.2677H77.8623V20.7759ZM80.5294 12.1798C80.5294 10.4273 81.2714 9.30799 82.5954 9.30799C83.945 9.30799 84.6612 10.4785 84.6612 12.1798C84.6612 13.8939 83.932 15.0835 82.5954 15.0835C81.2841 15.0835 80.5294 13.9323 80.5294 12.1798Z"/>
<path d="M96.8932 10.0691C96.65 8.25908 95.1919 7.13977 92.7101 7.13977C90.1966 7.13977 88.5401 8.30383 88.5463 10.197C88.5401 11.6681 89.4674 12.6211 91.3863 13.0048L93.0876 13.3438C93.9446 13.5165 94.3349 13.8299 94.3476 14.3224C94.3349 14.9044 93.7015 15.3202 92.7487 15.3202C91.7763 15.3202 91.1304 14.9044 90.9641 14.105L88.2842 14.2457C88.5401 16.1261 90.1391 17.2837 92.7421 17.2837C95.2877 17.2837 97.1106 15.9854 97.1171 14.0474C97.1106 12.6275 96.1832 11.7768 94.2771 11.3867L92.499 11.0285C91.5844 10.8302 91.2455 10.5168 91.252 10.0435C91.2455 9.45511 91.9106 9.07135 92.7549 9.07135C93.7015 9.07135 94.2643 9.58941 94.3987 10.2226L96.8932 10.0691Z"/>
<path d="M104.593 12.9089C104.6 14.2265 103.698 14.9172 102.719 14.9172C101.689 14.9172 101.024 14.1945 101.018 13.0368V7.2677H98.293V13.5229C98.2995 15.819 99.6425 17.2198 101.619 17.2198C103.096 17.2198 104.158 16.4586 104.6 15.3074H104.702V17.0918H107.318V7.2677H104.593V12.9089Z"/>
<path d="M108.957 17.0919H111.682V11.1948C111.682 10.1075 112.373 9.38476 113.281 9.38476C114.176 9.38476 114.778 9.99876 114.778 10.9645V17.0919H117.419V11.0925C117.419 10.0755 118.001 9.38476 118.992 9.38476C119.862 9.38476 120.515 9.92842 120.515 11.0221V17.0919H123.233V10.4849C123.233 8.35501 121.966 7.13977 120.137 7.13977C118.698 7.13977 117.579 7.87532 117.176 9.001H117.073C116.76 7.86251 115.756 7.13977 114.407 7.13977C113.083 7.13977 112.078 7.84332 111.669 9.001H111.554V7.2677H108.957V17.0919Z"/>
</symbol><symbol viewBox="0 0 117 24" id="logo-02" xmlns="http://www.w3.org/2000/svg">
<g clip-path="url(#iclip0_11_110)">
<path d="M6.09537 11.7259C9.33338 11.7259 11.9583 9.10096 11.9583 5.86294C11.9583 2.62493 9.33338 0 6.09537 0C2.85735 0 0.232422 2.62493 0.232422 5.86294C0.232422 9.10096 2.85735 11.7259 6.09537 11.7259Z"/>
<path d="M6.09537 23.4518C9.33338 23.4518 11.9583 20.8268 11.9583 17.5888C11.9583 14.3508 9.33338 11.7259 6.09537 11.7259C2.85735 11.7259 0.232422 14.3508 0.232422 17.5888C0.232422 20.8268 2.85735 23.4518 6.09537 23.4518Z"/>
<path d="M31.1885 16.4995H39.0495V14.3589H33.7848V4.21936H31.1885V16.4995Z"/>
<path d="M44.3758 16.6794C47.17 16.6794 48.909 14.7666 48.909 11.9305C48.909 9.07623 47.17 7.16943 44.3758 7.16943C41.5817 7.16943 39.8428 9.07623 39.8428 11.9305C39.8428 14.7666 41.5817 16.6794 44.3758 16.6794ZM44.3877 14.7007C43.0986 14.7007 42.4391 13.5194 42.4391 11.9125C42.4391 10.3055 43.0986 9.11821 44.3877 9.11821C45.653 9.11821 46.3127 10.3055 46.3127 11.9125C46.3127 13.5194 45.653 14.7007 44.3877 14.7007Z"/>
<path d="M54.2127 20.1452C56.8452 20.1452 58.7159 18.946 58.7159 16.5895V7.28937H56.1796V8.83639H56.0837C55.7418 8.08687 54.9922 7.16943 53.4512 7.16943C51.4306 7.16943 49.7217 8.74044 49.7217 11.8765C49.7217 14.9405 51.3825 16.3676 53.4573 16.3676C54.9263 16.3676 55.7478 15.6301 56.0837 14.8686H56.1916V16.5535C56.1916 17.8187 55.382 18.3104 54.2727 18.3104C53.1454 18.3104 52.5758 17.8187 52.3659 17.2611L50.0036 17.5789C50.3094 19.0299 51.7303 20.1452 54.2127 20.1452ZM54.2669 14.4488C53.0136 14.4488 52.33 13.4535 52.33 11.8645C52.33 10.2995 53.0016 9.20214 54.2669 9.20214C55.5079 9.20214 56.2035 10.2515 56.2035 11.8645C56.2035 13.4895 55.496 14.4488 54.2669 14.4488Z"/>
<path d="M64.4031 16.6794C67.1974 16.6794 68.9363 14.7666 68.9363 11.9305C68.9363 9.07623 67.1974 7.16943 64.4031 7.16943C61.6088 7.16943 59.8701 9.07623 59.8701 11.9305C59.8701 14.7666 61.6088 16.6794 64.4031 16.6794ZM64.4151 14.7007C63.1259 14.7007 62.4665 13.5194 62.4665 11.9125C62.4665 10.3055 63.1259 9.11821 64.4151 9.11821C65.6803 9.11821 66.34 10.3055 66.34 11.9125C66.34 13.5194 65.6803 14.7007 64.4151 14.7007Z"/>
<path d="M70.091 16.4995H72.6454V7.28937H70.091V16.4995ZM71.3743 6.10212C72.1358 6.10212 72.7594 5.5205 72.7594 4.80695C72.7594 4.09939 72.1358 3.51776 71.3743 3.51776C70.6187 3.51776 69.9951 4.09939 69.9951 4.80695C69.9951 5.5205 70.6187 6.10212 71.3743 6.10212Z"/>
<path d="M74.1846 19.9534H76.7389V15.0245H76.817C77.1707 15.792 77.9441 16.6494 79.4312 16.6494C81.5299 16.6494 83.1668 14.9885 83.1668 11.9065C83.1668 8.74045 81.4579 7.16943 79.4373 7.16943C77.8963 7.16943 77.1587 8.08687 76.817 8.83639H76.7031V7.28937H74.1846V19.9534ZM76.685 11.8945C76.685 10.2515 77.3806 9.20214 78.6219 9.20214C79.8871 9.20214 80.5585 10.2995 80.5585 11.8945C80.5585 13.5014 79.8749 14.6167 78.6219 14.6167C77.3925 14.6167 76.685 13.5374 76.685 11.8945Z"/>
<path d="M92.027 9.91571C91.799 8.21878 90.432 7.16943 88.1054 7.16943C85.7489 7.16943 84.196 8.26074 84.2018 10.0356C84.196 11.4148 85.0653 12.3082 86.8643 12.668L88.4593 12.9858C89.2627 13.1477 89.6286 13.4415 89.6405 13.9032C89.6286 14.4488 89.0348 14.8386 88.1415 14.8386C87.2299 14.8386 86.6244 14.4488 86.4684 13.6993L83.9561 13.8312C84.196 15.5941 85.695 16.6794 88.1354 16.6794C90.5219 16.6794 92.2308 15.4622 92.2369 13.6454C92.2308 12.3142 91.3614 11.5167 89.5744 11.1509L87.9074 10.8152C87.05 10.6293 86.7323 10.3355 86.7384 9.89172C86.7323 9.34006 87.3559 8.98029 88.1474 8.98029C89.0348 8.98029 89.5624 9.46597 89.6884 10.0596L92.027 9.91571Z"/>
<path d="M99.2452 12.578C99.2513 13.8132 98.4056 14.4608 97.4884 14.4608C96.5229 14.4608 95.8993 13.7832 95.8932 12.6979V7.28937H93.3389V13.1536C93.345 15.3063 94.6041 16.6194 96.457 16.6194C97.8421 16.6194 98.8374 15.9059 99.2513 14.8266H99.3472V16.4995H101.8V7.28937H99.2452V12.578Z"/>
<path d="M103.336 16.4995H105.891V10.9711C105.891 9.95168 106.538 9.27411 107.39 9.27411C108.229 9.27411 108.793 9.84974 108.793 10.7552V16.4995H111.269V10.8751C111.269 9.92169 111.815 9.27411 112.744 9.27411C113.559 9.27411 114.171 9.78379 114.171 10.8092V16.4995H116.72V10.3055C116.72 8.30872 115.532 7.16943 113.817 7.16943C112.468 7.16943 111.419 7.85901 111.041 8.91434H110.945C110.651 7.847 109.71 7.16943 108.445 7.16943C107.204 7.16943 106.262 7.82901 105.878 8.91434H105.77V7.28937H103.336V16.4995Z"/>
<path d="M23.6839 0H11.958V11.7259H23.6839V0Z"/>
<path d="M11.958 11.7259H23.6839L11.958 23.4518V11.7259Z"/>
<path d="M31.1885 16.4995H39.0495V14.3589H33.7848V4.21936H31.1885V16.4995Z"/>
<path d="M44.3758 16.6794C47.17 16.6794 48.909 14.7666 48.909 11.9305C48.909 9.07623 47.17 7.16943 44.3758 7.16943C41.5817 7.16943 39.8428 9.07623 39.8428 11.9305C39.8428 14.7666 41.5817 16.6794 44.3758 16.6794ZM44.3877 14.7007C43.0986 14.7007 42.4391 13.5194 42.4391 11.9125C42.4391 10.3055 43.0986 9.11821 44.3877 9.11821C45.653 9.11821 46.3127 10.3055 46.3127 11.9125C46.3127 13.5194 45.653 14.7007 44.3877 14.7007Z"/>
<path d="M54.2127 20.1452C56.8452 20.1452 58.7159 18.946 58.7159 16.5895V7.28937H56.1796V8.83639H56.0837C55.7418 8.08687 54.9922 7.16943 53.4512 7.16943C51.4306 7.16943 49.7217 8.74044 49.7217 11.8765C49.7217 14.9405 51.3825 16.3676 53.4573 16.3676C54.9263 16.3676 55.7478 15.6301 56.0837 14.8686H56.1916V16.5535C56.1916 17.8187 55.382 18.3104 54.2727 18.3104C53.1454 18.3104 52.5758 17.8187 52.3659 17.2611L50.0036 17.5789C50.3094 19.0299 51.7303 20.1452 54.2127 20.1452ZM54.2669 14.4488C53.0136 14.4488 52.33 13.4535 52.33 11.8645C52.33 10.2995 53.0016 9.20214 54.2669 9.20214C55.5079 9.20214 56.2035 10.2515 56.2035 11.8645C56.2035 13.4895 55.496 14.4488 54.2669 14.4488Z"/>
<path d="M64.4031 16.6794C67.1974 16.6794 68.9363 14.7666 68.9363 11.9305C68.9363 9.07623 67.1974 7.16943 64.4031 7.16943C61.6088 7.16943 59.8701 9.07623 59.8701 11.9305C59.8701 14.7666 61.6088 16.6794 64.4031 16.6794ZM64.4151 14.7007C63.1259 14.7007 62.4665 13.5194 62.4665 11.9125C62.4665 10.3055 63.1259 9.11821 64.4151 9.11821C65.6803 9.11821 66.34 10.3055 66.34 11.9125C66.34 13.5194 65.6803 14.7007 64.4151 14.7007Z"/>
<path d="M70.091 16.4995H72.6454V7.28937H70.091V16.4995ZM71.3743 6.10212C72.1358 6.10212 72.7594 5.5205 72.7594 4.80695C72.7594 4.09939 72.1358 3.51776 71.3743 3.51776C70.6187 3.51776 69.9951 4.09939 69.9951 4.80695C69.9951 5.5205 70.6187 6.10212 71.3743 6.10212Z"/>
<path d="M74.1846 19.9534H76.7389V15.0245H76.817C77.1707 15.792 77.9441 16.6494 79.4312 16.6494C81.5299 16.6494 83.1668 14.9885 83.1668 11.9065C83.1668 8.74045 81.4579 7.16943 79.4373 7.16943C77.8963 7.16943 77.1587 8.08687 76.817 8.83639H76.7031V7.28937H74.1846V19.9534ZM76.685 11.8945C76.685 10.2515 77.3806 9.20214 78.6219 9.20214C79.8871 9.20214 80.5585 10.2995 80.5585 11.8945C80.5585 13.5014 79.8749 14.6167 78.6219 14.6167C77.3925 14.6167 76.685 13.5374 76.685 11.8945Z"/>
<path d="M92.027 9.91571C91.799 8.21878 90.432 7.16943 88.1054 7.16943C85.7489 7.16943 84.196 8.26074 84.2018 10.0356C84.196 11.4148 85.0653 12.3082 86.8643 12.668L88.4593 12.9858C89.2627 13.1477 89.6286 13.4415 89.6405 13.9032C89.6286 14.4488 89.0348 14.8386 88.1415 14.8386C87.2299 14.8386 86.6244 14.4488 86.4684 13.6993L83.9561 13.8312C84.196 15.5941 85.695 16.6794 88.1354 16.6794C90.5219 16.6794 92.2308 15.4622 92.2369 13.6454C92.2308 12.3142 91.3614 11.5167 89.5744 11.1509L87.9074 10.8152C87.05 10.6293 86.7323 10.3355 86.7384 9.89172C86.7323 9.34006 87.3559 8.98029 88.1474 8.98029C89.0348 8.98029 89.5624 9.46597 89.6884 10.0596L92.027 9.91571Z"/>
<path d="M99.2452 12.578C99.2513 13.8132 98.4056 14.4608 97.4884 14.4608C96.5229 14.4608 95.8993 13.7832 95.8932 12.6979V7.28937H93.3389V13.1536C93.345 15.3063 94.6041 16.6194 96.457 16.6194C97.8421 16.6194 98.8374 15.9059 99.2513 14.8266H99.3472V16.4995H101.8V7.28937H99.2452V12.578Z"/>
<path d="M103.336 16.4995H105.891V10.9711C105.891 9.95168 106.538 9.27411 107.39 9.27411C108.229 9.27411 108.793 9.84974 108.793 10.7552V16.4995H111.269V10.8751C111.269 9.92169 111.815 9.27411 112.744 9.27411C113.559 9.27411 114.171 9.78379 114.171 10.8092V16.4995H116.72V10.3055C116.72 8.30872 115.532 7.16943 113.817 7.16943C112.468 7.16943 111.419 7.85901 111.041 8.91434H110.945C110.651 7.847 109.71 7.16943 108.445 7.16943C107.204 7.16943 106.262 7.82901 105.878 8.91434H105.77V7.28937H103.336V16.4995Z"/>
</g>
<defs>
<clipPath id="iclip0_11_110">
<rect width="117" height="24"/>
</clipPath>
</defs>
</symbol><symbol viewBox="0 0 118 24" id="logo-03" xmlns="http://www.w3.org/2000/svg">
<g clip-path="url(#jclip0_11_87)">
<path d="M0.719727 0H12.4456L0.719727 11.7259V0Z"/>
<path d="M12.4456 11.7259H0.719727V23.4518H12.4456V11.7259Z"/>
<path d="M31.6758 16.4995H39.5368V14.3589H34.2721V4.21936H31.6758V16.4995Z"/>
<path d="M44.8631 16.6794C47.6574 16.6794 49.3963 14.7666 49.3963 11.9305C49.3963 9.07623 47.6574 7.16943 44.8631 7.16943C42.069 7.16943 40.3301 9.07623 40.3301 11.9305C40.3301 14.7666 42.069 16.6794 44.8631 16.6794ZM44.875 14.7007C43.5859 14.7007 42.9264 13.5194 42.9264 11.9125C42.9264 10.3055 43.5859 9.11821 44.875 9.11821C46.1403 9.11821 46.8 10.3055 46.8 11.9125C46.8 13.5194 46.1403 14.7007 44.875 14.7007Z"/>
<path d="M54.7 20.1452C57.3325 20.1452 59.2032 18.946 59.2032 16.5895V7.28937H56.6669V8.83639H56.571C56.2291 8.08687 55.4795 7.16943 53.9385 7.16943C51.9179 7.16943 50.209 8.74044 50.209 11.8765C50.209 14.9405 51.8698 16.3676 53.9446 16.3676C55.4136 16.3676 56.2352 15.6301 56.571 14.8686H56.6789V16.5535C56.6789 17.8187 55.8693 18.3104 54.76 18.3104C53.6327 18.3104 53.0631 17.8187 52.8532 17.2611L50.4909 17.5789C50.7967 19.0299 52.2176 20.1452 54.7 20.1452ZM54.7542 14.4488C53.5009 14.4488 52.8173 13.4535 52.8173 11.8645C52.8173 10.2995 53.4889 9.20214 54.7542 9.20214C55.9952 9.20214 56.6908 10.2515 56.6908 11.8645C56.6908 13.4895 55.9833 14.4488 54.7542 14.4488Z"/>
<path d="M64.8904 16.6794C67.6847 16.6794 69.4236 14.7666 69.4236 11.9305C69.4236 9.07623 67.6847 7.16943 64.8904 7.16943C62.0961 7.16943 60.3574 9.07623 60.3574 11.9305C60.3574 14.7666 62.0961 16.6794 64.8904 16.6794ZM64.9024 14.7007C63.6132 14.7007 62.9538 13.5194 62.9538 11.9125C62.9538 10.3055 63.6132 9.11821 64.9024 9.11821C66.1676 9.11821 66.8273 10.3055 66.8273 11.9125C66.8273 13.5194 66.1676 14.7007 64.9024 14.7007Z"/>
<path d="M70.5783 16.4995H73.1327V7.28937H70.5783V16.4995ZM71.8616 6.10212C72.6231 6.10212 73.2467 5.5205 73.2467 4.80695C73.2467 4.09939 72.6231 3.51776 71.8616 3.51776C71.106 3.51776 70.4824 4.09939 70.4824 4.80695C70.4824 5.5205 71.106 6.10212 71.8616 6.10212Z"/>
<path d="M74.6719 19.9534H77.2262V15.0245H77.3043C77.658 15.792 78.4314 16.6494 79.9185 16.6494C82.0172 16.6494 83.6541 14.9885 83.6541 11.9065C83.6541 8.74045 81.9452 7.16943 79.9246 7.16943C78.3836 7.16943 77.646 8.08687 77.3043 8.83639H77.1904V7.28937H74.6719V19.9534ZM77.1723 11.8945C77.1723 10.2515 77.8679 9.20214 79.1092 9.20214C80.3744 9.20214 81.0458 10.2995 81.0458 11.8945C81.0458 13.5014 80.3622 14.6167 79.1092 14.6167C77.8798 14.6167 77.1723 13.5374 77.1723 11.8945Z"/>
<path d="M92.5143 9.91571C92.2863 8.21878 90.9193 7.16943 88.5927 7.16943C86.2363 7.16943 84.6833 8.26074 84.6891 10.0356C84.6833 11.4148 85.5526 12.3082 87.3516 12.668L88.9466 12.9858C89.75 13.1477 90.1159 13.4415 90.1278 13.9032C90.1159 14.4488 89.5221 14.8386 88.6288 14.8386C87.7172 14.8386 87.1117 14.4488 86.9558 13.6993L84.4434 13.8312C84.6833 15.5941 86.1823 16.6794 88.6227 16.6794C91.0092 16.6794 92.7181 15.4622 92.7242 13.6454C92.7181 12.3142 91.8487 11.5167 90.0617 11.1509L88.3947 10.8152C87.5374 10.6293 87.2196 10.3355 87.2257 9.89172C87.2196 9.34006 87.8432 8.98029 88.6347 8.98029C89.5221 8.98029 90.0497 9.46597 90.1757 10.0596L92.5143 9.91571Z"/>
<path d="M99.7325 12.578C99.7386 13.8132 98.8929 14.4608 97.9757 14.4608C97.0102 14.4608 96.3866 13.7832 96.3805 12.6979V7.28937H93.8262V13.1536C93.8323 15.3063 95.0914 16.6194 96.9443 16.6194C98.3294 16.6194 99.3247 15.9059 99.7386 14.8266H99.8345V16.4995H102.287V7.28937H99.7325V12.578Z"/>
<path d="M103.823 16.4995H106.378V10.9711C106.378 9.95168 107.025 9.27411 107.877 9.27411C108.716 9.27411 109.28 9.84974 109.28 10.7552V16.4995H111.756V10.8751C111.756 9.92169 112.302 9.27411 113.231 9.27411C114.047 9.27411 114.658 9.78379 114.658 10.8092V16.4995H117.207V10.3055C117.207 8.30872 116.02 7.16943 114.305 7.16943C112.956 7.16943 111.906 7.85901 111.529 8.91434H111.432C111.139 7.847 110.197 7.16943 108.932 7.16943C107.691 7.16943 106.75 7.82901 106.366 8.91434H106.258V7.28937H103.823V16.4995Z"/>
<path d="M12.4453 0H24.1712L12.4453 11.7259V0Z"/>
<path d="M12.4453 11.7259H24.1712L12.4453 23.4518V11.7259Z"/>
<path d="M31.6758 16.4995H39.5368V14.3589H34.2721V4.21936H31.6758V16.4995Z"/>
<path d="M44.8631 16.6794C47.6574 16.6794 49.3963 14.7666 49.3963 11.9305C49.3963 9.07623 47.6574 7.16943 44.8631 7.16943C42.069 7.16943 40.3301 9.07623 40.3301 11.9305C40.3301 14.7666 42.069 16.6794 44.8631 16.6794ZM44.875 14.7007C43.5859 14.7007 42.9264 13.5194 42.9264 11.9125C42.9264 10.3055 43.5859 9.11821 44.875 9.11821C46.1403 9.11821 46.8 10.3055 46.8 11.9125C46.8 13.5194 46.1403 14.7007 44.875 14.7007Z"/>
<path d="M54.7 20.1452C57.3325 20.1452 59.2032 18.946 59.2032 16.5895V7.28937H56.6669V8.83639H56.571C56.2291 8.08687 55.4795 7.16943 53.9385 7.16943C51.9179 7.16943 50.209 8.74044 50.209 11.8765C50.209 14.9405 51.8698 16.3676 53.9446 16.3676C55.4136 16.3676 56.2352 15.6301 56.571 14.8686H56.6789V16.5535C56.6789 17.8187 55.8693 18.3104 54.76 18.3104C53.6327 18.3104 53.0631 17.8187 52.8532 17.2611L50.4909 17.5789C50.7967 19.0299 52.2176 20.1452 54.7 20.1452ZM54.7542 14.4488C53.5009 14.4488 52.8173 13.4535 52.8173 11.8645C52.8173 10.2995 53.4889 9.20214 54.7542 9.20214C55.9952 9.20214 56.6908 10.2515 56.6908 11.8645C56.6908 13.4895 55.9833 14.4488 54.7542 14.4488Z"/>
<path d="M64.8904 16.6794C67.6847 16.6794 69.4236 14.7666 69.4236 11.9305C69.4236 9.07623 67.6847 7.16943 64.8904 7.16943C62.0961 7.16943 60.3574 9.07623 60.3574 11.9305C60.3574 14.7666 62.0961 16.6794 64.8904 16.6794ZM64.9024 14.7007C63.6132 14.7007 62.9538 13.5194 62.9538 11.9125C62.9538 10.3055 63.6132 9.11821 64.9024 9.11821C66.1676 9.11821 66.8273 10.3055 66.8273 11.9125C66.8273 13.5194 66.1676 14.7007 64.9024 14.7007Z"/>
<path d="M70.5783 16.4995H73.1327V7.28937H70.5783V16.4995ZM71.8616 6.10212C72.6231 6.10212 73.2467 5.5205 73.2467 4.80695C73.2467 4.09939 72.6231 3.51776 71.8616 3.51776C71.106 3.51776 70.4824 4.09939 70.4824 4.80695C70.4824 5.5205 71.106 6.10212 71.8616 6.10212Z"/>
<path d="M74.6719 19.9534H77.2262V15.0245H77.3043C77.658 15.792 78.4314 16.6494 79.9185 16.6494C82.0172 16.6494 83.6541 14.9885 83.6541 11.9065C83.6541 8.74045 81.9452 7.16943 79.9246 7.16943C78.3836 7.16943 77.646 8.08687 77.3043 8.83639H77.1904V7.28937H74.6719V19.9534ZM77.1723 11.8945C77.1723 10.2515 77.8679 9.20214 79.1092 9.20214C80.3744 9.20214 81.0458 10.2995 81.0458 11.8945C81.0458 13.5014 80.3622 14.6167 79.1092 14.6167C77.8798 14.6167 77.1723 13.5374 77.1723 11.8945Z"/>
<path d="M92.5143 9.91571C92.2863 8.21878 90.9193 7.16943 88.5927 7.16943C86.2363 7.16943 84.6833 8.26074 84.6891 10.0356C84.6833 11.4148 85.5526 12.3082 87.3516 12.668L88.9466 12.9858C89.75 13.1477 90.1159 13.4415 90.1278 13.9032C90.1159 14.4488 89.5221 14.8386 88.6288 14.8386C87.7172 14.8386 87.1117 14.4488 86.9558 13.6993L84.4434 13.8312C84.6833 15.5941 86.1823 16.6794 88.6227 16.6794C91.0092 16.6794 92.7181 15.4622 92.7242 13.6454C92.7181 12.3142 91.8487 11.5167 90.0617 11.1509L88.3947 10.8152C87.5374 10.6293 87.2196 10.3355 87.2257 9.89172C87.2196 9.34006 87.8432 8.98029 88.6347 8.98029C89.5221 8.98029 90.0497 9.46597 90.1757 10.0596L92.5143 9.91571Z"/>
<path d="M99.7325 12.578C99.7386 13.8132 98.8929 14.4608 97.9757 14.4608C97.0102 14.4608 96.3866 13.7832 96.3805 12.6979V7.28937H93.8262V13.1536C93.8323 15.3063 95.0914 16.6194 96.9443 16.6194C98.3294 16.6194 99.3247 15.9059 99.7386 14.8266H99.8345V16.4995H102.287V7.28937H99.7325V12.578Z"/>
<path d="M103.823 16.4995H106.378V10.9711C106.378 9.95168 107.025 9.27411 107.877 9.27411C108.716 9.27411 109.28 9.84974 109.28 10.7552V16.4995H111.756V10.8751C111.756 9.92169 112.302 9.27411 113.231 9.27411C114.047 9.27411 114.658 9.78379 114.658 10.8092V16.4995H117.207V10.3055C117.207 8.30872 116.02 7.16943 114.305 7.16943C112.956 7.16943 111.906 7.85901 111.529 8.91434H111.432C111.139 7.847 110.197 7.16943 108.932 7.16943C107.691 7.16943 106.75 7.82901 106.366 8.91434H106.258V7.28937H103.823V16.4995Z"/>
</g>
<defs>
<clipPath id="jclip0_11_87">
<rect width="118" height="24"/>
</clipPath>
</defs>
</symbol><symbol viewBox="0 0 14 18" id="shopping_cart" xmlns="http://www.w3.org/2000/svg">
<path d="M12 4H10.3203C10.3203 3.375 10.1641 2.8151 9.85156 2.32031C9.5651 1.82552 9.17448 1.4349 8.67969 1.14844C8.1849 0.835938 7.625 0.679688 7 0.679688C6.375 0.679688 5.8151 0.835938 5.32031 1.14844C4.82552 1.4349 4.42188 1.82552 4.10938 2.32031C3.82292 2.8151 3.67969 3.375 3.67969 4H2C1.53125 4 1.1276 4.16927 0.789062 4.50781C0.476562 4.82031 0.320312 5.21094 0.320312 5.67969V15.6797C0.320312 16.1224 0.476562 16.513 0.789062 16.8516C1.1276 17.1641 1.53125 17.3203 2 17.3203H12C12.4688 17.3203 12.8594 17.1641 13.1719 16.8516C13.5104 16.513 13.6797 16.1224 13.6797 15.6797V5.67969C13.6797 5.21094 13.5104 4.82031 13.1719 4.50781C12.8594 4.16927 12.4688 4 12 4ZM5.32031 7.32031C5.32031 7.55469 5.24219 7.76302 5.08594 7.94531C4.92969 8.10156 4.73438 8.17969 4.5 8.17969C4.26562 8.17969 4.07031 8.10156 3.91406 7.94531C3.75781 7.76302 3.67969 7.55469 3.67969 7.32031V5.67969H5.32031V7.32031ZM7 2.32031C7.46875 2.32031 7.85938 2.48958 8.17188 2.82812C8.51042 3.14062 8.67969 3.53125 8.67969 4H5.32031C5.32031 3.53125 5.47656 3.14062 5.78906 2.82812C6.1276 2.48958 6.53125 2.32031 7 2.32031ZM10.3203 7.32031C10.3203 7.55469 10.2422 7.76302 10.0859 7.94531C9.92969 8.10156 9.73438 8.17969 9.5 8.17969C9.26562 8.17969 9.07031 8.10156 8.91406 7.94531C8.75781 7.76302 8.67969 7.55469 8.67969 7.32031V5.67969H10.3203V7.32031Z"/>
</symbol><symbol viewBox="0 0 20 19" id="stars" xmlns="http://www.w3.org/2000/svg">
<g clip-path="url(#lclip0_11_434)">
<path d="M9.07088 0.615946C9.41462 -0.205316 10.5854 -0.205315 10.9291 0.615948L12.9579 5.46318C13.1029 5.80941 13.4306 6.04597 13.8067 6.07593L19.0727 6.49546C19.9649 6.56655 20.3267 7.673 19.6469 8.25166L15.6348 11.6669C15.3482 11.9109 15.223 12.2937 15.3106 12.6584L16.5363 17.7649C16.744 18.6301 15.7969 19.3139 15.033 18.8503L10.5245 16.1138C10.2025 15.9183 9.7975 15.9183 9.47548 16.1138L4.96699 18.8503C4.20311 19.3139 3.25596 18.6301 3.46363 17.7649L4.68942 12.6584C4.77698 12.2937 4.65182 11.9109 4.36526 11.6669L0.353062 8.25166C-0.326718 7.673 0.0350679 6.56655 0.927291 6.49546L6.19336 6.07593C6.5695 6.04597 6.89716 5.80941 7.04207 5.46318L9.07088 0.615946Z"/>
</g>
<defs>
<clipPath id="lclip0_11_434">
<rect width="20" height="19"/>
</clipPath>
</defs>
</symbol><symbol viewBox="0 0 24 24" id="twit" xmlns="http://www.w3.org/2000/svg">
<path d="M20.9728 6.7174C20.5084 7.33692 19.947 7.87733 19.3103 8.31776C19.3103 8.47959 19.3103 8.64142 19.3103 8.81225C19.3154 11.7511 18.1415 14.5691 16.0518 16.6345C13.962 18.6999 11.1312 19.8399 8.19405 19.7989C6.49599 19.8046 4.81967 19.4169 3.29642 18.6661C3.21428 18.6302 3.16131 18.549 3.16162 18.4593V18.3604C3.16162 18.2313 3.26623 18.1267 3.39527 18.1267C5.06442 18.0716 6.67402 17.4929 7.99634 16.4724C6.48553 16.4419 5.12619 15.5469 4.5006 14.1707C4.46901 14.0956 4.47884 14.0093 4.52657 13.9432C4.57429 13.8771 4.653 13.8407 4.73425 13.8471C5.19342 13.8932 5.65718 13.8505 6.1002 13.7212C4.43239 13.375 3.17921 11.9904 2.99986 10.2957C2.99349 10.2144 3.02992 10.1357 3.096 10.0879C3.16207 10.0402 3.24824 10.0303 3.32338 10.062C3.77094 10.2595 4.25409 10.3635 4.74324 10.3676C3.28184 9.40846 2.65061 7.58405 3.20655 5.92622C3.26394 5.76513 3.40181 5.64612 3.5695 5.61294C3.73718 5.57975 3.90996 5.63728 4.02432 5.76439C5.99639 7.86325 8.70604 9.11396 11.5819 9.25279C11.5083 8.95885 11.4721 8.65676 11.4741 8.35372C11.501 6.76472 12.4842 5.34921 13.9634 4.76987C15.4425 4.19054 17.1249 4.56203 18.223 5.71044C18.9714 5.56785 19.695 5.31645 20.3707 4.96421C20.4202 4.93331 20.483 4.93331 20.5325 4.96421C20.5634 5.01373 20.5634 5.07652 20.5325 5.12604C20.2052 5.87552 19.6523 6.50412 18.9509 6.92419C19.5651 6.85296 20.1685 6.70807 20.7482 6.49264C20.797 6.45942 20.8611 6.45942 20.9099 6.49264C20.9508 6.51134 20.9814 6.54711 20.9935 6.59042C21.0056 6.63373 20.998 6.68018 20.9728 6.7174Z"/>
</symbol></svg>